<?xml version="1.0" standalone="no"?>
<!DOCTYPE svg PUBLIC "-//W3C//DTD SVG 20010904//EN"
 "http://www.w3.org/TR/2001/REC-SVG-20010904/DTD/svg10.dtd">
<svg version="1.0" xmlns="http://www.w3.org/2000/svg"
 width="500.000000pt" height="500.000000pt" viewBox="0 0 500.000000 500.000000"
 preserveAspectRatio="xMidYMid meet">
<metadata>
Created by potrace 1.14, written by Peter Selinger 2001-2017
</metadata>
<g transform="translate(0.000000,500.000000) scale(0.100000,-0.100000)"
fill="#000000" stroke="none">
<path d="M2457 4045 c-40 -79 -34 -74 -127 -89 -14 -3 -38 -5 -55 -5 -29 -1
-29 -1 33 -64 60 -60 62 -65 57 -103 -10 -71 -16 -105 -22 -121 -4 -11 20 -2
74 27 l80 42 72 -37 c39 -21 74 -35 77 -32 4 3 0 39 -9 79 l-14 73 60 62 c34
34 59 64 56 67 -2 2 -29 7 -59 11 -49 7 -84 12 -101 14 -3 1 -21 35 -40 76
-19 41 -36 74 -39 75 -3 0 -22 -34 -43 -75z"/>
<path d="M1945 3850 l-18 -59 -56 -16 c-31 -9 -60 -17 -65 -19 -6 -1 15 -21
46 -45 l56 -42 -4 -64 c-2 -36 -2 -65 -1 -65 2 0 27 18 56 39 l53 40 65 -25
c44 -17 64 -20 61 -12 -3 7 -13 36 -22 65 l-17 51 35 50 c20 27 36 53 36 56 0
4 -19 7 -42 6 -83 -3 -86 -2 -120 50 -18 27 -36 50 -39 50 -3 0 -14 -27 -24
-60z"/>
<path d="M2989 3861 c-34 -50 -35 -51 -89 -52 -30 -1 -61 -1 -67 0 -18 3 -17
0 26 -58 l39 -52 -19 -56 c-10 -31 -19 -59 -19 -63 0 -4 29 3 64 15 l64 22 51
-39 c29 -23 51 -33 52 -26 0 7 1 37 2 67 2 52 4 56 47 89 25 19 46 37 48 41 1
4 -24 15 -57 24 -59 16 -59 17 -76 69 -10 29 -21 57 -25 61 -4 4 -22 -15 -41
-42z"/>
<path d="M2290 3320 c-163 -28 -341 -162 -424 -320 -56 -107 -74 -187 -75
-342 -1 -75 -1 -77 -29 -83 -43 -9 -90 -42 -112 -77 -37 -61 -21 -161 33 -212
20 -19 66 -36 96 -36 20 0 31 -7 39 -25 16 -34 16 -34 -10 -30 -49 9 -295 47
-327 51 -50 7 -61 -8 -61 -88 0 -59 -3 -72 -21 -87 -20 -16 -21 -26 -22 -204
0 -103 2 -189 4 -191 2 -2 27 -5 54 -7 86 -4 142 -34 173 -94 19 -36 25 -255
8 -295 -32 -75 -89 -110 -178 -110 -64 0 -62 2 -59 -79 1 -40 8 -50 42 -56 13
-3 35 -7 49 -10 14 -3 43 -7 65 -10 22 -4 65 -10 95 -15 30 -5 69 -12 85 -14
17 -3 73 -12 125 -21 52 -9 106 -18 120 -20 14 -2 97 -16 185 -31 213 -35 218
-35 224 -25 7 10 6 1099 0 1105 -6 6 -70 14 -169 21 -103 8 -166 13 -245 20
-33 3 -82 8 -110 10 -160 13 -222 18 -240 20 -11 1 -39 3 -62 4 l-42 1 1 45 1
45 36 -5 c20 -4 47 -8 61 -11 14 -2 42 -7 64 -10 21 -3 48 -8 60 -10 11 -2 39
-7 61 -9 22 -3 65 -10 95 -15 30 -5 71 -12 90 -15 19 -3 46 -7 60 -10 14 -3
41 -7 60 -10 19 -3 46 -7 60 -10 14 -2 45 -7 70 -10 108 -15 225 -38 230 -45
3 -5 5 -257 5 -560 0 -357 4 -554 10 -559 9 -6 27 -7 65 -2 7 1 10 196 10 565
l0 563 108 17 c59 10 118 19 132 22 14 2 54 9 90 14 88 14 120 19 220 35 47 8
103 16 125 20 22 3 47 7 55 10 8 2 36 6 62 10 26 3 66 9 90 13 68 12 71 11 71
-30 0 -21 -2 -40 -4 -42 -2 -2 -40 -7 -84 -10 -44 -4 -98 -9 -120 -11 -22 -3
-76 -7 -120 -10 -75 -6 -110 -8 -237 -20 -29 -2 -91 -7 -138 -11 -47 -4 -96
-8 -110 -9 -14 -2 -33 -3 -42 -4 -15 -1 -17 -44 -17 -562 l0 -561 43 6 c24 4
54 9 67 11 42 7 513 85 549 91 19 3 46 7 60 10 22 4 208 34 236 38 29 4 41 28
42 81 l0 55 -59 0 c-72 0 -127 25 -161 72 -21 30 -23 46 -26 165 -3 123 -2
136 19 173 32 57 78 83 153 86 34 2 64 3 68 3 4 1 6 87 6 192 0 178 -1 191
-20 209 -17 15 -21 33 -23 90 -2 98 -7 100 -141 76 -44 -8 -95 -17 -114 -20
-19 -3 -62 -10 -95 -16 -33 -5 -61 -10 -63 -10 -1 0 4 13 13 30 11 21 23 30
41 30 56 0 124 55 145 117 22 67 -12 151 -76 188 -23 14 -51 25 -61 25 -18 0
-20 8 -21 93 -4 221 -77 388 -227 515 -65 55 -193 117 -270 131 -67 12 -347
13 -416 1z m162 -610 c51 -41 124 -74 188 -84 14 -3 127 -5 253 -5 l227 -1 0
-49 c0 -56 13 -72 66 -77 58 -5 75 -14 88 -46 27 -64 -6 -110 -87 -118 l-52
-5 -35 -67 c-44 -84 -46 -86 -100 -94 -25 -3 -54 -7 -65 -9 -11 -2 -38 -6 -60
-10 -22 -3 -110 -18 -195 -32 -85 -13 -168 -25 -185 -25 -16 0 -113 14 -215
31 -102 16 -202 32 -222 35 -127 19 -117 13 -164 106 -33 66 -38 70 -90 70
-81 0 -123 82 -69 135 13 14 30 25 37 26 53 3 82 9 91 18 5 5 10 32 11 60 l1
51 60 1 c111 1 165 16 240 64 49 31 108 89 140 139 l17 25 32 -47 c18 -26 58
-67 88 -92z m726 -1083 c2 -27 -1 -39 -13 -43 -20 -8 -22 -6 -28 38 -5 41 -1
50 22 46 9 -2 16 -17 19 -41z m-271 -37 c2 -34 0 -40 -17 -40 -12 0 -20 7 -21
18 0 9 -2 26 -4 37 -4 21 11 36 29 29 6 -2 12 -22 13 -44z m402 -127 c-24
-129 -110 -180 -317 -189 -79 -3 -97 -1 -129 17 -57 32 -96 84 -107 142 -4 24
-1 26 32 29 34 3 39 0 58 -37 28 -55 73 -77 144 -70 114 11 144 17 172 31 33
17 68 69 68 100 0 17 7 21 44 23 l44 2 -9 -48z"/>
<path d="M2745 2356 c-27 -27 -32 -66 -15 -111 12 -33 35 -41 66 -25 45 24 43
117 -4 148 -19 13 -23 11 -47 -12z"/>
<path d="M2181 2348 c-20 -32 -16 -97 7 -121 58 -57 115 43 71 125 -14 26 -61
24 -78 -4z"/>
<path d="M1269 1569 c-14 -14 -17 -38 -17 -145 0 -171 0 -171 117 -173 102 -2
155 14 167 51 4 12 7 70 7 127 -1 98 -2 105 -27 129 -24 24 -32 26 -128 27
-83 1 -105 -2 -119 -16z"/>
<path d="M3502 1575 c-41 -18 -52 -53 -52 -166 0 -98 1 -101 30 -131 l30 -30
105 4 c57 1 109 8 114 13 16 16 17 279 1 305 -11 18 -186 22 -228 5z"/>
</g>
</svg>
